<?xml version="1.0" encoding="utf-8"?>
<!-- Generator: Adobe Illustrator 27.0.0, SVG Export Plug-In . SVG Version: 6.00 Build 0)  -->
<svg version="1.1" id="Layer_1" xmlns="http://www.w3.org/2000/svg" xmlns:xlink="http://www.w3.org/1999/xlink" x="0px" y="0px"
	 viewBox="0 0 4992 4992" style="enable-background:new 0 0 4992 4992;" xml:space="preserve">
<style type="text/css">
	.st0{clip-path:url(#SVGID_00000094581672339274878780000004954057011876242331_);}
	.st1{fill:#FFFFFF;}
	.st2{clip-path:url(#SVGID_00000172440509468109669260000017851844234092439185_);}
	.st3{fill:#231F20;}
	.st4{clip-path:url(#SVGID_00000081632504376677465100000008531871793073520311_);}
	.st5{fill:#221E1F;}
	.st6{fill:none;stroke:#000000;stroke-width:0.3;}
	.st7{clip-path:url(#SVGID_00000060752013561306241060000010940954398752802488_);}
</style>
<g>
	<defs>
		<rect id="SVGID_1_" x="1146.7" y="829.4" width="2698.7" height="2699.9"/>
	</defs>
	<clipPath id="SVGID_00000023265334633079296980000006032976252175934384_">
		<use xlink:href="#SVGID_1_"  style="overflow:visible;"/>
	</clipPath>
	<g style="clip-path:url(#SVGID_00000023265334633079296980000006032976252175934384_);">
		<path class="st1" d="M3844.7,2179.3c0,22.1-0.5,44.1-1.6,66.2c-1.1,22-2.7,44.1-4.9,66c-2.2,22-4.9,43.9-8.1,65.7
			c-3.2,21.8-7,43.6-11.3,65.2c-4.3,21.7-9.1,43.2-14.5,64.6c-5.4,21.4-11.2,42.7-17.7,63.8c-6.4,21.1-13.3,42.1-20.8,62.9
			c-7.4,20.8-15.4,41.4-23.8,61.8c-8.4,20.4-17.4,40.6-26.8,60.5s-19.4,39.7-29.8,59.1c-10.4,19.5-21.3,38.7-32.6,57.6
			c-11.3,18.9-23.2,37.6-35.4,55.9c-12.3,18.4-25,36.4-38.1,54.1c-13.1,17.7-26.7,35.1-40.7,52.2c-14,17.1-28.4,33.8-43.2,50.1
			c-14.8,16.4-30,32.3-45.6,47.9c-15.6,15.6-31.6,30.8-47.9,45.6c-16.4,14.8-33.1,29.2-50.1,43.2c-17.1,14-34.5,27.6-52.2,40.7
			c-17.7,13.1-35.8,25.9-54.1,38.1c-18.4,12.3-37,24.1-55.9,35.4c-18.9,11.3-38.1,22.2-57.6,32.6c-19.5,10.4-39.2,20.3-59.1,29.8
			s-40.1,18.4-60.5,26.8c-20.4,8.4-41,16.4-61.8,23.8c-20.8,7.4-41.7,14.4-62.9,20.8s-42.4,12.3-63.8,17.7
			c-21.4,5.4-42.9,10.2-64.6,14.5c-21.6,4.3-43.4,8.1-65.2,11.3c-21.8,3.2-43.7,5.9-65.7,8.1c-22,2.2-44,3.8-66,4.9
			c-22,1.1-44.1,1.6-66.2,1.6c-22.1,0-44.1-0.5-66.2-1.6c-22-1.1-44.1-2.7-66-4.9c-22-2.2-43.9-4.9-65.7-8.1
			c-21.8-3.2-43.6-7-65.2-11.3c-21.6-4.3-43.2-9.1-64.6-14.5c-21.4-5.4-42.7-11.2-63.8-17.7c-21.1-6.4-42.1-13.3-62.9-20.8
			c-20.8-7.4-41.4-15.4-61.8-23.8c-20.4-8.4-40.6-17.4-60.5-26.8s-39.7-19.4-59.1-29.8c-19.5-10.4-38.7-21.3-57.6-32.6
			c-18.9-11.3-37.6-23.2-55.9-35.4c-18.4-12.3-36.4-25-54.1-38.1c-17.7-13.2-35.1-26.7-52.2-40.7c-17.1-14-33.8-28.4-50.1-43.2
			c-16.4-14.8-32.3-30-47.9-45.6c-15.6-15.6-30.8-31.6-45.6-47.9c-14.8-16.4-29.2-33.1-43.2-50.1c-14-17.1-27.6-34.5-40.7-52.2
			c-13.2-17.7-25.9-35.8-38.1-54.1c-12.3-18.4-24.1-37-35.4-55.9c-11.3-18.9-22.2-38.1-32.6-57.6c-10.4-19.5-20.3-39.2-29.8-59.1
			s-18.4-40.1-26.8-60.5c-8.4-20.4-16.4-41-23.8-61.8c-7.4-20.8-14.4-41.7-20.8-62.9c-6.4-21.1-12.3-42.4-17.7-63.8
			c-5.4-21.4-10.2-42.9-14.5-64.6c-4.3-21.6-8.1-43.4-11.3-65.2c-3.2-21.8-5.9-43.7-8.1-65.7c-2.2-22-3.8-44-4.9-66
			c-1.1-22-1.6-44.1-1.6-66.2c0-22.1,0.5-44.1,1.6-66.2c1.1-22,2.7-44.1,4.9-66c2.2-22,4.9-43.9,8.1-65.7c3.2-21.8,7-43.6,11.3-65.2
			c4.3-21.6,9.1-43.2,14.5-64.6c5.4-21.4,11.2-42.7,17.7-63.8c6.4-21.1,13.3-42.1,20.8-62.9c7.4-20.8,15.4-41.4,23.8-61.8
			c8.4-20.4,17.4-40.6,26.8-60.5s19.4-39.7,29.8-59.1c10.4-19.5,21.3-38.7,32.6-57.6c11.3-18.9,23.2-37.6,35.4-55.9
			c12.3-18.4,25-36.4,38.1-54.1c13.2-17.7,26.7-35.1,40.7-52.2c14-17.1,28.4-33.8,43.2-50.1c14.8-16.4,30-32.3,45.6-47.9
			c15.6-15.6,31.6-30.8,47.9-45.6c16.4-14.8,33.1-29.2,50.1-43.2c17.1-14,34.5-27.6,52.2-40.7c17.7-13.1,35.8-25.9,54.1-38.1
			c18.3-12.3,37-24.1,55.9-35.4c18.9-11.3,38.1-22.2,57.6-32.6c19.5-10.4,39.2-20.3,59.1-29.8s40.1-18.4,60.5-26.8
			c20.4-8.4,41-16.4,61.8-23.8c20.8-7.4,41.7-14.4,62.9-20.8c21.1-6.4,42.4-12.3,63.8-17.7c21.4-5.4,42.9-10.2,64.6-14.5
			c21.7-4.3,43.4-8.1,65.2-11.3c21.8-3.2,43.7-5.9,65.7-8.1c22-2.2,44-3.8,66-4.9c22-1.1,44.1-1.6,66.2-1.6
			c22.1,0,44.1,0.5,66.2,1.6c22,1.1,44.1,2.7,66,4.9c22,2.2,43.9,4.9,65.7,8.1c21.8,3.2,43.6,7,65.2,11.3
			c21.7,4.3,43.2,9.1,64.6,14.5c21.4,5.4,42.7,11.2,63.8,17.7c21.1,6.4,42.1,13.3,62.9,20.8c20.8,7.4,41.4,15.4,61.8,23.8
			s40.6,17.4,60.5,26.8s39.7,19.4,59.1,29.8c19.5,10.4,38.7,21.3,57.6,32.6c18.9,11.3,37.6,23.2,55.9,35.4
			c18.3,12.3,36.4,25,54.1,38.1c17.7,13.2,35.1,26.7,52.2,40.7c17.1,14,33.8,28.4,50.1,43.2c16.4,14.8,32.3,30,47.9,45.6
			c15.6,15.6,30.8,31.6,45.6,47.9c14.8,16.4,29.2,33.1,43.2,50.1c14,17.1,27.6,34.5,40.7,52.2c13.2,17.7,25.9,35.8,38.1,54.1
			c12.3,18.4,24.1,37,35.4,55.9c11.3,18.9,22.2,38.1,32.6,57.6c10.4,19.5,20.3,39.2,29.8,59.1s18.4,40.1,26.8,60.5
			c8.4,20.4,16.4,41,23.8,61.8s14.4,41.7,20.8,62.9c6.4,21.1,12.3,42.4,17.7,63.8c5.4,21.4,10.2,42.9,14.5,64.6
			c4.3,21.7,8.1,43.4,11.3,65.2c3.2,21.8,5.9,43.7,8.1,65.7c2.2,22,3.8,44,4.9,66C3844.2,2135.2,3844.7,2157.2,3844.7,2179.3"/>
	</g>
</g>
<g>
	<defs>
		<rect id="SVGID_00000039846820165985555980000000175291997476220808_" x="967.5" y="2089.3" width="3057" height="2428"/>
	</defs>
	<clipPath id="SVGID_00000098918859414572422110000013150836111082397873_">
		<use xlink:href="#SVGID_00000039846820165985555980000000175291997476220808_"  style="overflow:visible;"/>
	</clipPath>
	<g style="clip-path:url(#SVGID_00000098918859414572422110000013150836111082397873_);">
		<path class="st1" d="M2025.1,2089.4H2967c4.5,0,9,0.2,13.5,0.5c4.5,0.3,9,0.8,13.4,1.5c4.5,0.7,8.9,1.5,13.3,2.5
			c4.4,1,8.8,2.2,13.1,3.5c4.3,1.3,8.6,2.8,12.8,4.5c4.2,1.7,8.3,3.5,12.4,5.4c4.1,2,8,4.1,11.9,6.4c3.9,2.3,7.7,4.7,11.4,7.2
			c3.7,2.6,7.3,5.2,10.9,8.1c3.5,2.8,6.9,5.8,10.2,8.9c3.3,3.1,6.5,6.3,9.5,9.6c3.1,3.3,6,6.8,8.8,10.3c2.8,3.5,5.5,7.2,8,10.9
			c2.5,3.7,4.9,7.6,7.1,11.5c2.2,3.9,4.3,7.9,6.2,12c1.9,4.1,3.7,8.2,5.3,12.4l889.7,2312.4H967.5l890.2-2312.4
			c1.6-4.2,3.4-8.3,5.3-12.4c1.9-4.1,4-8.1,6.2-12c2.2-3.9,4.6-7.7,7.1-11.5c2.5-3.7,5.2-7.4,8-10.9c2.8-3.5,5.7-7,8.8-10.3
			c3-3.3,6.2-6.5,9.5-9.6c3.3-3.1,6.7-6,10.2-8.9c3.5-2.8,7.1-5.5,10.8-8.1c3.7-2.6,7.5-5,11.4-7.2c3.9-2.3,7.9-4.4,11.9-6.4
			c4.1-2,8.2-3.8,12.4-5.4c4.2-1.7,8.4-3.2,12.7-4.5c4.3-1.3,8.6-2.5,13-3.5c4.4-1,8.8-1.9,13.3-2.5c4.5-0.7,8.9-1.2,13.4-1.5
			C2016.1,2089.6,2020.6,2089.4,2025.1,2089.4"/>
	</g>
</g>
<path class="st3" d="M3392.4,2874.3c-80,97.1-152.9,204.1-312,204.1c-293,0-293-359.7-585.3-359.7c-292.2,0-292.2,359.7-584.4,359.7
	c-159.2,0-231.2-107-311.1-204.1l258.1-669.9c1.6-4.2,3.3-8.4,5.2-12.4c1.9-4.1,4-8.1,6.2-12c2.2-3.9,4.6-7.8,7.1-11.5
	c2.5-3.7,5.1-7.4,7.9-10.9c2.8-3.5,5.7-7,8.7-10.3c3-3.3,6.2-6.5,9.5-9.6c3.3-3.1,6.7-6,10.2-8.9c3.5-2.8,7.1-5.5,10.8-8.1
	c3.7-2.6,7.5-5,11.4-7.2c3.9-2.3,7.9-4.4,11.9-6.3s8.2-3.8,12.4-5.4c4.2-1.7,8.4-3.1,12.7-4.5c4.3-1.3,8.6-2.5,13-3.5
	c4.4-1,8.8-1.8,13.3-2.5c4.4-0.7,8.9-1.2,13.4-1.5s9-0.5,13.5-0.5h942.4c4.5,0,9,0.1,13.5,0.5c4.5,0.3,9,0.8,13.4,1.5
	c4.5,0.7,8.9,1.5,13.3,2.5c4.4,1,8.7,2.2,13,3.5c4.3,1.3,8.5,2.8,12.7,4.5c4.2,1.7,8.3,3.5,12.4,5.4c4,2,8,4.1,11.9,6.3
	c3.9,2.3,7.7,4.7,11.4,7.2c3.7,2.6,7.3,5.2,10.8,8.1c3.5,2.8,6.9,5.8,10.2,8.9c3.3,3.1,6.4,6.3,9.5,9.6c3,3.3,5.9,6.8,8.7,10.3
	s5.4,7.2,7.9,10.9c2.5,3.7,4.9,7.6,7.1,11.5c2.2,3.9,4.3,7.9,6.2,12c1.9,4.1,3.7,8.2,5.2,12.4L3392.4,2874.3z"/>
<g>
	<g>
		<g>
			<defs>
				<rect id="SVGID_00000087372602068030150370000000838541739101364372_" x="1211.6" y="636" width="1106" height="1106"/>
			</defs>
			<clipPath id="SVGID_00000099656474062232735380000006596951892246988179_">
				<use xlink:href="#SVGID_00000087372602068030150370000000838541739101364372_"  style="overflow:visible;"/>
			</clipPath>
		</g>
		<g>
			<defs>
				<rect id="SVGID_00000158028973637101519690000015484071062806188963_" x="1211.6" y="636" width="1106" height="1106"/>
			</defs>
			<clipPath id="SVGID_00000066483724995061750510000003176373025209361292_">
				<use xlink:href="#SVGID_00000158028973637101519690000015484071062806188963_"  style="overflow:visible;"/>
			</clipPath>
			<g style="clip-path:url(#SVGID_00000066483724995061750510000003176373025209361292_);">
				<path class="st5" d="M2317.4,1188.9c0,9-0.2,18.1-0.7,27.1c-0.4,9-1.1,18.1-2,27.1c-0.9,9-2,18-3.3,26.9
					c-1.3,9-2.9,17.9-4.6,26.7s-3.7,17.7-5.9,26.5c-2.2,8.8-4.6,17.5-7.2,26.2c-2.6,8.7-5.5,17.2-8.5,25.8c-3,8.5-6.3,17-9.8,25.3
					c-3.5,8.4-7.1,16.6-11,24.8c-3.9,8.2-7.9,16.3-12.2,24.2s-8.7,15.9-13.4,23.6c-4.7,7.8-9.5,15.4-14.5,22.9
					c-5,7.5-10.2,14.9-15.6,22.2c-5.4,7.3-11,14.4-16.7,21.4s-11.6,13.8-17.7,20.5s-12.3,13.3-18.7,19.7
					c-6.4,6.4-12.9,12.6-19.7,18.7c-6.7,6.1-13.6,12-20.5,17.7s-14.1,11.3-21.4,16.7c-7.3,5.4-14.7,10.6-22.2,15.6
					c-7.5,5-15.2,9.9-22.9,14.5c-7.8,4.7-15.6,9.1-23.6,13.4c-8,4.3-16.1,8.3-24.2,12.2c-8.2,3.9-16.4,7.5-24.8,11
					c-8.4,3.5-16.8,6.7-25.3,9.8c-8.5,3-17.1,5.9-25.8,8.5c-8.7,2.6-17.4,5-26.2,7.2c-8.8,2.2-17.6,4.2-26.5,5.9s-17.8,3.3-26.7,4.6
					c-9,1.3-17.9,2.4-26.9,3.3c-9,0.9-18,1.6-27.1,2c-9,0.4-18.1,0.7-27.1,0.7s-18.1-0.2-27.1-0.7c-9-0.4-18.1-1.1-27.1-2
					c-9-0.9-18-2-26.9-3.3c-8.9-1.3-17.9-2.9-26.7-4.6s-17.7-3.8-26.5-5.9c-8.8-2.2-17.5-4.6-26.2-7.2c-8.7-2.6-17.2-5.5-25.8-8.5
					c-8.5-3-17-6.3-25.3-9.8c-8.4-3.5-16.6-7.1-24.8-11c-8.2-3.9-16.3-7.9-24.2-12.2c-8-4.3-15.8-8.7-23.6-13.4
					c-7.8-4.7-15.4-9.5-22.9-14.5c-7.5-5-14.9-10.2-22.2-15.6c-7.3-5.4-14.4-11-21.4-16.7s-13.8-11.7-20.5-17.7
					c-6.7-6.1-13.3-12.3-19.7-18.7c-6.4-6.4-12.6-13-18.7-19.7s-12-13.6-17.7-20.5s-11.3-14.1-16.7-21.4
					c-5.4-7.3-10.6-14.7-15.6-22.2c-5-7.5-9.9-15.2-14.5-22.9c-4.7-7.8-9.1-15.6-13.4-23.6s-8.3-16.1-12.2-24.2
					c-3.9-8.2-7.5-16.4-11-24.8c-3.5-8.4-6.7-16.8-9.8-25.3c-3.1-8.5-5.9-17.1-8.5-25.8c-2.6-8.7-5-17.4-7.2-26.2
					c-2.2-8.8-4.2-17.6-5.9-26.5s-3.3-17.8-4.6-26.7c-1.3-8.9-2.4-17.9-3.3-26.9c-0.9-9-1.6-18-2-27.1c-0.4-9-0.7-18.1-0.7-27.1
					c0-9.1,0.2-18.1,0.7-27.1c0.4-9,1.1-18.1,2-27.1c0.9-9,2-18,3.3-26.9c1.3-8.9,2.9-17.9,4.6-26.7s3.7-17.7,5.9-26.5
					c2.2-8.8,4.6-17.5,7.2-26.2c2.6-8.7,5.5-17.3,8.5-25.8c3-8.5,6.3-17,9.8-25.3c3.5-8.4,7.1-16.6,11-24.8
					c3.9-8.2,7.9-16.3,12.2-24.2s8.7-15.8,13.4-23.6c4.7-7.8,9.5-15.4,14.5-22.9c5-7.5,10.2-14.9,15.6-22.2
					c5.4-7.3,11-14.4,16.7-21.4c5.7-7,11.6-13.8,17.7-20.6c6.1-6.7,12.3-13.3,18.7-19.7c6.4-6.4,12.9-12.6,19.7-18.7
					c6.7-6.1,13.6-12,20.5-17.7c7-5.7,14.1-11.3,21.4-16.7c7.3-5.4,14.7-10.6,22.2-15.6c7.5-5,15.2-9.9,22.9-14.5
					c7.8-4.7,15.6-9.1,23.6-13.4c8-4.3,16.1-8.3,24.2-12.2c8.2-3.9,16.4-7.5,24.8-11c8.4-3.5,16.8-6.7,25.3-9.8
					c8.5-3,17.1-5.9,25.8-8.5c8.7-2.6,17.4-5,26.2-7.2c8.8-2.2,17.6-4.2,26.5-5.9c8.9-1.8,17.8-3.3,26.7-4.6
					c9-1.3,17.9-2.4,26.9-3.3c9-0.9,18-1.6,27.1-2c9-0.4,18.1-0.7,27.1-0.7s18.1,0.2,27.1,0.7c9,0.4,18.1,1.1,27.1,2
					c9,0.9,18,2,26.9,3.3c8.9,1.3,17.9,2.9,26.7,4.6c8.9,1.8,17.7,3.8,26.5,5.9c8.8,2.2,17.5,4.6,26.2,7.2
					c8.7,2.6,17.2,5.5,25.8,8.5c8.5,3.1,17,6.3,25.3,9.8c8.4,3.5,16.6,7.1,24.8,11c8.2,3.9,16.3,7.9,24.2,12.2
					c8,4.3,15.8,8.7,23.6,13.4c7.8,4.7,15.4,9.5,22.9,14.5c7.5,5,14.9,10.2,22.2,15.6c7.3,5.4,14.4,11,21.4,16.7
					c7,5.7,13.8,11.7,20.5,17.7c6.7,6.1,13.3,12.3,19.7,18.7c6.4,6.4,12.6,12.9,18.7,19.7c6.1,6.7,12,13.6,17.7,20.6
					c5.7,7,11.3,14.1,16.7,21.4c5.4,7.3,10.6,14.7,15.6,22.2c5,7.5,9.9,15.2,14.5,22.9c4.7,7.8,9.1,15.6,13.4,23.6
					s8.3,16.1,12.2,24.2c3.9,8.2,7.5,16.5,11,24.8c3.5,8.4,6.7,16.8,9.8,25.3c3.1,8.5,5.9,17.1,8.5,25.8c2.6,8.7,5,17.4,7.2,26.2
					c2.2,8.8,4.2,17.6,5.9,26.5s3.3,17.8,4.6,26.7c1.3,9,2.4,17.9,3.3,26.9c0.9,9,1.6,18,2,27.1
					C2317.2,1170.8,2317.4,1179.8,2317.4,1188.9z"/>
			</g>
		</g>
		<g>
			<defs>
				<rect id="SVGID_00000079468770771375720540000012427790485544464010_" x="1211.6" y="636" width="1106" height="1106"/>
			</defs>
			<clipPath id="SVGID_00000106859884984785272340000010153030801434774946_">
				<use xlink:href="#SVGID_00000079468770771375720540000012427790485544464010_"  style="overflow:visible;"/>
			</clipPath>
		</g>
	</g>
	<line class="st6" x1="1211.6" y1="582" x2="1211.6" y2="618"/>
	<line class="st6" x1="1157.6" y1="636" x2="1193.6" y2="636"/>
	<line class="st6" x1="1157.6" y1="1742" x2="1193.6" y2="1742"/>
	<line class="st6" x1="1211.6" y1="1796" x2="1211.6" y2="1760"/>
	<line class="st6" x1="2317.6" y1="582" x2="2317.6" y2="618"/>
	<line class="st6" x1="2371.6" y1="636" x2="2335.6" y2="636"/>
	<line class="st6" x1="2371.6" y1="1742" x2="2335.6" y2="1742"/>
	<line class="st6" x1="2317.6" y1="1796" x2="2317.6" y2="1760"/>
</g>
<g>
	<defs>
		<rect id="SVGID_00000100363189134734085610000000978869774018389929_" x="1049.4" y="473.8" width="1430" height="1430"/>
	</defs>
	<clipPath id="SVGID_00000066491918282802778170000001093759338985647232_">
		<use xlink:href="#SVGID_00000100363189134734085610000000978869774018389929_"  style="overflow:visible;"/>
	</clipPath>
	<g style="clip-path:url(#SVGID_00000066491918282802778170000001093759338985647232_);">
		<path class="st1" d="M1764.5,1904c-395.1,0-715.1-322.2-715.1-715.1s320-715.1,715.1-715.1s715.1,320,715.1,715.1
			S2157.4,1904,1764.5,1904z M1764.5,517.9c-370.8,0-671,300.2-671,671c0,370.8,300.2,671,671,671c370.8,0,671-300.2,671-671
			C2435.5,818.1,2133.1,517.9,1764.5,517.9z"/>
	</g>
</g>
</svg>
