<svg xmlns="http://www.w3.org/2000/svg" xmlns:xlink="http://www.w3.org/1999/xlink" width="4992" zoomAndPan="magnify" viewBox="0 0 3744 3743.999967" height="4992" preserveAspectRatio="xMidYMid meet" version="1.0"><defs><clipPath id="c84fdb4907"><path d="M 725.757812 1506 L 3018.507812 1506 L 3018.507812 3327 L 725.757812 3327 Z M 725.757812 1506 " clip-rule="nonzero"/></clipPath><clipPath id="334420b0aa"><path d="M 908.824219 416.375 L 1738.324219 416.375 L 1738.324219 1245.875 L 908.824219 1245.875 Z M 908.824219 416.375 " clip-rule="nonzero"/></clipPath></defs><path fill="#6b9dab" d="M 2883.386719 1573.679688 C 2883.386719 1590.234375 2882.980469 1606.773438 2882.167969 1623.308594 C 2881.355469 1639.839844 2880.136719 1656.339844 2878.515625 1672.8125 C 2876.894531 1689.285156 2874.867188 1705.710938 2872.4375 1722.082031 C 2870.011719 1738.453125 2867.179688 1754.757812 2863.953125 1770.992188 C 2860.722656 1787.226562 2857.097656 1803.371094 2853.074219 1819.429688 C 2849.054688 1835.484375 2844.640625 1851.429688 2839.835938 1867.269531 C 2835.03125 1883.109375 2829.839844 1898.824219 2824.265625 1914.40625 C 2818.6875 1929.992188 2812.730469 1945.429688 2806.398438 1960.722656 C 2800.0625 1976.015625 2793.359375 1991.140625 2786.28125 2006.105469 C 2779.203125 2021.066406 2771.765625 2035.847656 2763.960938 2050.445312 C 2756.160156 2065.042969 2748.003906 2079.441406 2739.492188 2093.636719 C 2730.984375 2107.835938 2722.132812 2121.816406 2712.9375 2135.578125 C 2703.738281 2149.339844 2694.210938 2162.867188 2684.351562 2176.164062 C 2674.492188 2189.457031 2664.3125 2202.503906 2653.8125 2215.296875 C 2643.308594 2228.09375 2632.503906 2240.625 2621.386719 2252.886719 C 2610.269531 2265.152344 2598.859375 2277.136719 2587.15625 2288.839844 C 2575.453125 2300.542969 2563.46875 2311.953125 2551.203125 2323.070312 C 2538.941406 2334.1875 2526.410156 2344.992188 2513.617188 2355.496094 C 2500.820312 2365.996094 2487.777344 2376.175781 2474.480469 2386.035156 C 2461.1875 2395.894531 2447.65625 2405.421875 2433.894531 2414.621094 C 2420.132812 2423.816406 2406.152344 2432.667969 2391.953125 2441.175781 C 2377.757812 2449.6875 2363.359375 2457.84375 2348.761719 2465.644531 C 2334.164062 2473.449219 2319.382812 2480.886719 2304.421875 2487.964844 C 2289.457031 2495.042969 2274.332031 2501.746094 2259.039062 2508.082031 C 2243.746094 2514.414062 2228.308594 2520.371094 2212.722656 2525.949219 C 2197.140625 2531.523438 2181.425781 2536.714844 2165.589844 2541.519531 C 2149.75 2546.324219 2133.800781 2550.738281 2117.746094 2554.757812 C 2101.6875 2558.78125 2085.542969 2562.40625 2069.308594 2565.636719 C 2053.074219 2568.863281 2036.773438 2571.691406 2020.398438 2574.121094 C 2004.027344 2576.550781 1987.605469 2578.578125 1971.132812 2580.199219 C 1954.660156 2581.820312 1938.15625 2583.039062 1921.625 2583.851562 C 1905.09375 2584.664062 1888.550781 2585.070312 1871.996094 2585.070312 C 1855.445312 2585.070312 1838.902344 2584.664062 1822.371094 2583.851562 C 1805.839844 2583.039062 1789.335938 2581.820312 1772.863281 2580.199219 C 1756.390625 2578.578125 1739.96875 2576.550781 1723.597656 2574.121094 C 1707.222656 2571.691406 1690.917969 2568.863281 1674.683594 2565.636719 C 1658.453125 2562.40625 1642.304688 2558.78125 1626.25 2554.757812 C 1610.195312 2550.738281 1594.246094 2546.324219 1578.40625 2541.519531 C 1562.566406 2536.714844 1546.855469 2531.523438 1531.269531 2525.945312 C 1515.6875 2520.371094 1500.25 2514.414062 1484.957031 2508.082031 C 1469.664062 2501.746094 1454.535156 2495.042969 1439.574219 2487.964844 C 1424.609375 2480.886719 1409.828125 2473.449219 1395.234375 2465.644531 C 1380.636719 2457.84375 1366.238281 2449.6875 1352.039062 2441.175781 C 1337.84375 2432.667969 1323.863281 2423.816406 1310.101562 2414.621094 C 1296.335938 2405.421875 1282.808594 2395.894531 1269.515625 2386.035156 C 1256.21875 2376.175781 1243.175781 2365.996094 1230.378906 2355.496094 C 1217.585938 2344.992188 1205.054688 2334.1875 1192.789062 2323.070312 C 1180.527344 2311.953125 1168.542969 2300.542969 1156.839844 2288.839844 C 1145.132812 2277.136719 1133.722656 2265.152344 1122.609375 2252.886719 C 1111.492188 2240.625 1100.683594 2228.09375 1090.183594 2215.296875 C 1079.683594 2202.503906 1069.503906 2189.457031 1059.644531 2176.164062 C 1049.78125 2162.867188 1040.253906 2149.339844 1031.058594 2135.578125 C 1021.863281 2121.816406 1013.011719 2107.835938 1004.5 2093.636719 C 995.992188 2079.441406 987.835938 2065.042969 980.03125 2050.445312 C 972.230469 2035.847656 964.789062 2021.066406 957.714844 2006.105469 C 950.636719 1991.140625 943.929688 1976.015625 937.597656 1960.722656 C 931.261719 1945.429688 925.308594 1929.992188 919.730469 1914.40625 C 914.15625 1898.824219 908.964844 1883.109375 904.160156 1867.269531 C 899.355469 1851.429688 894.941406 1835.484375 890.917969 1819.429688 C 886.898438 1803.371094 883.273438 1787.226562 880.042969 1770.992188 C 876.8125 1754.757812 873.984375 1738.453125 871.554688 1722.082031 C 869.128906 1705.710938 867.101562 1689.285156 865.480469 1672.8125 C 863.855469 1656.339844 862.640625 1639.839844 861.828125 1623.308594 C 861.015625 1606.773438 860.609375 1590.234375 860.609375 1573.679688 C 860.609375 1557.128906 861.015625 1540.585938 861.828125 1524.054688 C 862.640625 1507.523438 863.855469 1491.019531 865.480469 1474.546875 C 867.101562 1458.074219 869.128906 1441.652344 871.554688 1425.277344 C 873.984375 1408.90625 876.8125 1392.601562 880.042969 1376.367188 C 883.273438 1360.132812 886.898438 1343.988281 890.917969 1327.933594 C 894.941406 1311.878906 899.355469 1295.929688 904.160156 1280.089844 C 908.964844 1264.25 914.15625 1248.539062 919.730469 1232.953125 C 925.308594 1217.371094 931.261719 1201.929688 937.597656 1186.640625 C 943.929688 1171.347656 950.636719 1156.21875 957.714844 1141.257812 C 964.789062 1126.292969 972.230469 1111.511719 980.03125 1096.914062 C 987.835938 1082.316406 995.992188 1067.921875 1004.5 1053.722656 C 1013.011719 1039.527344 1021.863281 1025.546875 1031.058594 1011.785156 C 1040.253906 998.019531 1049.78125 984.492188 1059.644531 971.195312 C 1069.503906 957.902344 1079.683594 944.859375 1090.183594 932.0625 C 1100.683594 919.269531 1111.492188 906.738281 1122.609375 894.472656 C 1133.722656 882.210938 1145.132812 870.226562 1156.839844 858.519531 C 1168.542969 846.816406 1180.527344 835.40625 1192.789062 824.292969 C 1205.054688 813.175781 1217.585938 802.367188 1230.378906 791.867188 C 1243.175781 781.367188 1256.21875 771.1875 1269.515625 761.324219 C 1282.808594 751.464844 1296.335938 741.9375 1310.101562 732.742188 C 1323.863281 723.546875 1337.84375 714.695312 1352.039062 706.183594 C 1366.238281 697.675781 1380.632812 689.519531 1395.230469 681.714844 C 1409.828125 673.914062 1424.609375 666.472656 1439.574219 659.394531 C 1454.535156 652.320312 1469.664062 645.613281 1484.957031 639.28125 C 1500.25 632.945312 1515.6875 626.988281 1531.269531 621.414062 C 1546.855469 615.835938 1562.566406 610.648438 1578.40625 605.84375 C 1594.246094 601.039062 1610.195312 596.625 1626.25 592.601562 C 1642.304688 588.582031 1658.453125 584.953125 1674.683594 581.726562 C 1690.917969 578.496094 1707.222656 575.667969 1723.597656 573.238281 C 1739.96875 570.808594 1756.390625 568.785156 1772.863281 567.164062 C 1789.335938 565.539062 1805.839844 564.324219 1822.371094 563.511719 C 1838.902344 562.699219 1855.445312 562.292969 1871.996094 562.292969 C 1888.550781 562.292969 1905.09375 562.699219 1921.625 563.511719 C 1938.15625 564.324219 1954.660156 565.539062 1971.132812 567.164062 C 1987.605469 568.785156 2004.027344 570.808594 2020.398438 573.238281 C 2036.773438 575.667969 2053.074219 578.496094 2069.308594 581.726562 C 2085.542969 584.953125 2101.6875 588.582031 2117.746094 592.601562 C 2133.800781 596.625 2149.75 601.039062 2165.589844 605.84375 C 2181.425781 610.648438 2197.140625 615.835938 2212.722656 621.414062 C 2228.308594 626.988281 2243.746094 632.945312 2259.039062 639.28125 C 2274.332031 645.613281 2289.457031 652.320312 2304.421875 659.394531 C 2319.382812 666.472656 2334.164062 673.914062 2348.761719 681.714844 C 2363.359375 689.519531 2377.757812 697.675781 2391.953125 706.183594 C 2406.152344 714.695312 2420.132812 723.546875 2433.894531 732.742188 C 2447.65625 741.9375 2461.1875 751.464844 2474.480469 761.324219 C 2487.777344 771.1875 2500.820312 781.367188 2513.617188 791.867188 C 2526.410156 802.367188 2538.941406 813.175781 2551.203125 824.292969 C 2563.46875 835.40625 2575.453125 846.816406 2587.15625 858.519531 C 2598.859375 870.226562 2610.269531 882.210938 2621.386719 894.472656 C 2632.503906 906.738281 2643.308594 919.269531 2653.8125 932.0625 C 2664.3125 944.859375 2674.492188 957.902344 2684.351562 971.195312 C 2694.210938 984.492188 2703.738281 998.019531 2712.9375 1011.785156 C 2722.132812 1025.546875 2730.984375 1039.527344 2739.492188 1053.722656 C 2748.003906 1067.921875 2756.160156 1082.316406 2763.960938 1096.914062 C 2771.765625 1111.511719 2779.203125 1126.292969 2786.28125 1141.257812 C 2793.359375 1156.21875 2800.0625 1171.347656 2806.398438 1186.640625 C 2812.730469 1201.929688 2818.6875 1217.371094 2824.265625 1232.953125 C 2829.839844 1248.539062 2835.03125 1264.25 2839.835938 1280.089844 C 2844.640625 1295.929688 2849.054688 1311.878906 2853.074219 1327.933594 C 2857.097656 1343.988281 2860.722656 1360.132812 2863.953125 1376.367188 C 2867.179688 1392.601562 2870.011719 1408.90625 2872.4375 1425.277344 C 2874.867188 1441.652344 2876.894531 1458.074219 2878.515625 1474.546875 C 2880.136719 1491.019531 2881.355469 1507.523438 2882.167969 1524.054688 C 2882.980469 1540.585938 2883.386719 1557.128906 2883.386719 1573.679688 " fill-opacity="1" fill-rule="nonzero"/><g clip-path="url(#c84fdb4907)"><path fill="#231f20" d="M 1518.886719 1506.253906 L 2225.175781 1506.253906 C 2228.558594 1506.253906 2231.9375 1506.382812 2235.3125 1506.632812 C 2238.683594 1506.886719 2242.042969 1507.269531 2245.390625 1507.773438 C 2248.734375 1508.28125 2252.054688 1508.914062 2255.355469 1509.671875 C 2258.652344 1510.425781 2261.917969 1511.304688 2265.148438 1512.308594 C 2268.378906 1513.3125 2271.570312 1514.433594 2274.714844 1515.675781 C 2277.863281 1516.917969 2280.960938 1518.277344 2284.003906 1519.753906 C 2287.050781 1521.226562 2290.035156 1522.816406 2292.960938 1524.515625 C 2295.882812 1526.214844 2298.742188 1528.023438 2301.53125 1529.941406 C 2304.320312 1531.855469 2307.035156 1533.871094 2309.671875 1535.992188 C 2312.308594 1538.109375 2314.863281 1540.328125 2317.332031 1542.636719 C 2319.804688 1544.949219 2322.183594 1547.351562 2324.472656 1549.84375 C 2326.761719 1552.332031 2328.957031 1554.90625 2331.050781 1557.5625 C 2333.148438 1560.21875 2335.140625 1562.949219 2337.03125 1565.753906 C 2338.921875 1568.5625 2340.707031 1571.433594 2342.378906 1574.375 C 2344.054688 1577.316406 2345.617188 1580.3125 2347.0625 1583.371094 C 2348.511719 1586.429688 2349.84375 1589.535156 2351.058594 1592.695312 L 3018.238281 3326.753906 L 725.757812 3326.753906 L 1393.273438 1592.695312 C 1394.488281 1589.542969 1395.816406 1586.4375 1397.261719 1583.386719 C 1398.707031 1580.332031 1400.265625 1577.339844 1401.9375 1574.402344 C 1403.605469 1571.46875 1405.386719 1568.597656 1407.273438 1565.796875 C 1409.160156 1562.996094 1411.148438 1560.269531 1413.238281 1557.617188 C 1415.332031 1554.964844 1417.519531 1552.394531 1419.800781 1549.90625 C 1422.085938 1547.417969 1424.460938 1545.015625 1426.925781 1542.707031 C 1429.390625 1540.398438 1431.9375 1538.183594 1434.570312 1536.066406 C 1437.199219 1533.949219 1439.90625 1531.929688 1442.691406 1530.015625 C 1445.472656 1528.101562 1448.324219 1526.292969 1451.242188 1524.59375 C 1454.160156 1522.890625 1457.140625 1521.304688 1460.175781 1519.828125 C 1463.214844 1518.347656 1466.304688 1516.988281 1469.445312 1515.742188 C 1472.585938 1514.5 1475.765625 1513.375 1478.992188 1512.367188 C 1482.214844 1511.363281 1485.472656 1510.480469 1488.765625 1509.71875 C 1492.054688 1508.957031 1495.371094 1508.320312 1498.710938 1507.8125 C 1502.046875 1507.300781 1505.402344 1506.914062 1508.769531 1506.652344 C 1512.136719 1506.394531 1515.511719 1506.261719 1518.886719 1506.253906 " fill-opacity="1" fill-rule="nonzero"/></g><path fill="#fff9eb" d="M 2544.234375 2094.882812 C 2484.226562 2167.703125 2429.609375 2247.941406 2310.265625 2247.941406 C 2090.523438 2247.941406 2090.523438 1978.234375 1871.390625 1978.234375 C 1652.257812 1978.234375 1652.257812 2247.941406 1433.121094 2247.941406 C 1313.710938 2247.941406 1259.769531 2167.703125 1199.828125 2094.882812 L 1393.339844 1592.558594 C 1394.535156 1589.402344 1395.847656 1586.296875 1397.28125 1583.242188 C 1398.710938 1580.183594 1400.253906 1577.1875 1401.914062 1574.246094 C 1403.570312 1571.308594 1405.335938 1568.433594 1407.210938 1565.628906 C 1409.085938 1562.824219 1411.066406 1560.09375 1413.148438 1557.4375 C 1415.230469 1554.78125 1417.410156 1552.210938 1419.6875 1549.71875 C 1421.964844 1547.226562 1424.332031 1544.828125 1426.789062 1542.515625 C 1429.25 1540.203125 1431.792969 1537.988281 1434.417969 1535.871094 C 1437.046875 1533.753906 1439.75 1531.734375 1442.527344 1529.824219 C 1445.308594 1527.910156 1448.15625 1526.101562 1451.074219 1524.40625 C 1453.988281 1522.707031 1456.964844 1521.121094 1460 1519.648438 C 1463.039062 1518.175781 1466.125 1516.820312 1469.265625 1515.582031 C 1472.402344 1514.34375 1475.585938 1513.226562 1478.808594 1512.226562 C 1482.03125 1511.230469 1485.289062 1510.355469 1488.578125 1509.605469 C 1491.871094 1508.855469 1495.183594 1508.226562 1498.519531 1507.726562 C 1501.859375 1507.226562 1505.210938 1506.855469 1508.574219 1506.609375 C 1511.941406 1506.363281 1515.3125 1506.246094 1518.6875 1506.253906 L 2225.375 1506.253906 C 2228.75 1506.246094 2232.121094 1506.363281 2235.488281 1506.609375 C 2238.851562 1506.855469 2242.203125 1507.226562 2245.542969 1507.726562 C 2248.878906 1508.226562 2252.191406 1508.855469 2255.484375 1509.605469 C 2258.773438 1510.355469 2262.03125 1511.230469 2265.253906 1512.226562 C 2268.476562 1513.226562 2271.660156 1514.34375 2274.796875 1515.582031 C 2277.9375 1516.820312 2281.023438 1518.175781 2284.0625 1519.648438 C 2287.097656 1521.121094 2290.074219 1522.707031 2292.988281 1524.40625 C 2295.90625 1526.101562 2298.753906 1527.910156 2301.535156 1529.824219 C 2304.3125 1531.734375 2307.015625 1533.753906 2309.644531 1535.871094 C 2312.269531 1537.988281 2314.8125 1540.203125 2317.273438 1542.515625 C 2319.730469 1544.828125 2322.097656 1547.226562 2324.375 1549.71875 C 2326.652344 1552.210938 2328.832031 1554.78125 2330.914062 1557.4375 C 2332.996094 1560.09375 2334.976562 1562.824219 2336.851562 1565.628906 C 2338.726562 1568.433594 2340.492188 1571.308594 2342.152344 1574.246094 C 2343.808594 1577.1875 2345.351562 1580.183594 2346.78125 1583.242188 C 2348.214844 1586.296875 2349.527344 1589.402344 2350.722656 1592.558594 Z M 2544.234375 2094.882812 " fill-opacity="1" fill-rule="nonzero"/><g clip-path="url(#334420b0aa)"><path fill="#58828d" d="M 1738.066406 830.996094 C 1738.066406 837.78125 1737.902344 844.5625 1737.566406 851.339844 C 1737.234375 858.117188 1736.734375 864.882812 1736.070312 871.636719 C 1735.40625 878.390625 1734.574219 885.121094 1733.582031 891.832031 C 1732.585938 898.546875 1731.425781 905.230469 1730.101562 911.882812 C 1728.777344 918.539062 1727.289062 925.160156 1725.640625 931.742188 C 1723.992188 938.324219 1722.183594 944.859375 1720.214844 951.355469 C 1718.246094 957.847656 1716.117188 964.289062 1713.832031 970.675781 C 1711.542969 977.066406 1709.101562 983.394531 1706.507812 989.664062 C 1703.910156 995.933594 1701.160156 1002.136719 1698.257812 1008.269531 C 1695.359375 1014.402344 1692.308594 1020.460938 1689.109375 1026.445312 C 1685.910156 1032.429688 1682.566406 1038.332031 1679.078125 1044.152344 C 1675.589844 1049.972656 1671.960938 1055.703125 1668.191406 1061.347656 C 1664.421875 1066.988281 1660.515625 1072.535156 1656.472656 1077.984375 C 1652.429688 1083.4375 1648.257812 1088.785156 1643.953125 1094.027344 C 1639.648438 1099.273438 1635.21875 1104.410156 1630.660156 1109.4375 C 1626.105469 1114.464844 1621.425781 1119.378906 1616.628906 1124.175781 C 1611.828125 1128.976562 1606.917969 1133.652344 1601.890625 1138.210938 C 1596.863281 1142.765625 1591.726562 1147.199219 1586.480469 1151.503906 C 1581.234375 1155.808594 1575.886719 1159.980469 1570.4375 1164.023438 C 1564.984375 1168.066406 1559.441406 1171.972656 1553.796875 1175.742188 C 1548.15625 1179.511719 1542.425781 1183.140625 1536.605469 1186.628906 C 1530.785156 1190.117188 1524.882812 1193.460938 1518.898438 1196.660156 C 1512.914062 1199.859375 1506.855469 1202.90625 1500.71875 1205.808594 C 1494.585938 1208.710938 1488.382812 1211.457031 1482.113281 1214.054688 C 1475.847656 1216.652344 1469.515625 1219.09375 1463.128906 1221.378906 C 1456.738281 1223.664062 1450.296875 1225.792969 1443.804688 1227.761719 C 1437.3125 1229.734375 1430.773438 1231.542969 1424.191406 1233.191406 C 1417.609375 1234.839844 1410.992188 1236.324219 1404.335938 1237.648438 C 1397.679688 1238.972656 1390.996094 1240.132812 1384.285156 1241.128906 C 1377.570312 1242.125 1370.839844 1242.957031 1364.085938 1243.621094 C 1357.332031 1244.285156 1350.570312 1244.785156 1343.792969 1245.117188 C 1337.015625 1245.449219 1330.230469 1245.617188 1323.445312 1245.617188 C 1316.660156 1245.617188 1309.878906 1245.449219 1303.101562 1245.117188 C 1296.324219 1244.785156 1289.558594 1244.285156 1282.808594 1243.621094 C 1276.054688 1242.957031 1269.320312 1242.125 1262.609375 1241.128906 C 1255.898438 1240.132812 1249.214844 1238.972656 1242.558594 1237.648438 C 1235.902344 1236.324219 1229.285156 1234.839844 1222.703125 1233.191406 C 1216.121094 1231.542969 1209.582031 1229.734375 1203.089844 1227.761719 C 1196.59375 1225.792969 1190.152344 1223.664062 1183.765625 1221.378906 C 1177.375 1219.09375 1171.046875 1216.652344 1164.777344 1214.054688 C 1158.507812 1211.457031 1152.308594 1208.710938 1146.171875 1205.808594 C 1140.039062 1202.90625 1133.980469 1199.859375 1127.996094 1196.660156 C 1122.011719 1193.460938 1116.109375 1190.117188 1110.289062 1186.628906 C 1104.46875 1183.140625 1098.738281 1179.511719 1093.09375 1175.742188 C 1087.453125 1171.972656 1081.90625 1168.066406 1076.457031 1164.023438 C 1071.007812 1159.980469 1065.660156 1155.808594 1060.414062 1151.503906 C 1055.167969 1147.199219 1050.03125 1142.765625 1045.003906 1138.210938 C 1039.976562 1133.652344 1035.0625 1128.976562 1030.265625 1124.175781 C 1025.46875 1119.378906 1020.789062 1114.464844 1016.234375 1109.4375 C 1011.675781 1104.410156 1007.246094 1099.273438 1002.941406 1094.027344 C 998.636719 1088.785156 994.460938 1083.433594 990.417969 1077.984375 C 986.378906 1072.535156 982.472656 1066.988281 978.703125 1061.347656 C 974.933594 1055.703125 971.304688 1049.972656 967.8125 1044.152344 C 964.324219 1038.332031 960.980469 1032.429688 957.785156 1026.445312 C 954.585938 1020.460938 951.535156 1014.402344 948.632812 1008.269531 C 945.734375 1002.136719 942.984375 995.933594 940.386719 989.664062 C 937.789062 983.394531 935.347656 977.066406 933.0625 970.675781 C 930.777344 964.289062 928.648438 957.847656 926.679688 951.355469 C 924.710938 944.859375 922.898438 938.324219 921.25 931.742188 C 919.601562 925.160156 918.117188 918.539062 916.792969 911.882812 C 915.46875 905.230469 914.308594 898.546875 913.3125 891.832031 C 912.316406 885.121094 911.488281 878.390625 910.820312 871.636719 C 910.15625 864.882812 909.65625 858.117188 909.324219 851.339844 C 908.992188 844.5625 908.824219 837.78125 908.824219 830.996094 C 908.824219 824.210938 908.992188 817.429688 909.324219 810.652344 C 909.65625 803.875 910.15625 797.109375 910.820312 790.355469 C 911.488281 783.601562 912.316406 776.871094 913.3125 770.160156 C 914.308594 763.445312 915.46875 756.761719 916.792969 750.105469 C 918.117188 743.453125 919.601562 736.832031 921.25 730.25 C 922.898438 723.667969 924.710938 717.132812 926.679688 710.636719 C 928.648438 704.144531 930.777344 697.703125 933.0625 691.3125 C 935.347656 684.925781 937.789062 678.597656 940.386719 672.328125 C 942.984375 666.058594 945.734375 659.855469 948.632812 653.722656 C 951.535156 647.589844 954.585938 641.527344 957.785156 635.542969 C 960.980469 629.5625 964.324219 623.660156 967.8125 617.839844 C 971.304688 612.019531 974.933594 606.285156 978.703125 600.644531 C 982.472656 595.003906 986.378906 589.457031 990.417969 584.007812 C 994.460938 578.554688 998.636719 573.207031 1002.941406 567.964844 C 1007.246094 562.71875 1011.675781 557.582031 1016.234375 552.554688 C 1020.789062 547.527344 1025.46875 542.613281 1030.265625 537.816406 C 1035.0625 533.015625 1039.976562 528.339844 1045.003906 523.78125 C 1050.03125 519.226562 1055.167969 514.792969 1060.414062 510.488281 C 1065.660156 506.183594 1071.007812 502.011719 1076.457031 497.96875 C 1081.90625 493.925781 1087.453125 490.019531 1093.09375 486.25 C 1098.738281 482.480469 1104.46875 478.851562 1110.289062 475.363281 C 1116.109375 471.875 1122.011719 468.53125 1127.996094 465.332031 C 1133.980469 462.132812 1140.039062 459.085938 1146.171875 456.183594 C 1152.308594 453.28125 1158.507812 450.53125 1164.777344 447.9375 C 1171.046875 445.339844 1177.375 442.898438 1183.765625 440.613281 C 1190.152344 438.324219 1196.59375 436.199219 1203.089844 434.226562 C 1209.582031 432.257812 1216.121094 430.449219 1222.703125 428.800781 C 1229.285156 427.152344 1235.902344 425.664062 1242.558594 424.339844 C 1249.214844 423.019531 1255.898438 421.859375 1262.609375 420.863281 C 1269.320312 419.867188 1276.054688 419.035156 1282.808594 418.371094 C 1289.558594 417.707031 1296.324219 417.207031 1303.101562 416.875 C 1309.878906 416.542969 1316.660156 416.375 1323.445312 416.375 C 1330.230469 416.375 1337.015625 416.542969 1343.792969 416.875 C 1350.570312 417.207031 1357.332031 417.707031 1364.085938 418.371094 C 1370.839844 419.035156 1377.570312 419.867188 1384.285156 420.863281 C 1390.996094 421.859375 1397.679688 423.019531 1404.335938 424.339844 C 1410.992188 425.664062 1417.609375 427.152344 1424.191406 428.800781 C 1430.773438 430.449219 1437.3125 432.257812 1443.804688 434.226562 C 1450.296875 436.199219 1456.738281 438.324219 1463.128906 440.613281 C 1469.515625 442.898438 1475.847656 445.339844 1482.117188 447.9375 C 1488.382812 450.53125 1494.585938 453.28125 1500.71875 456.183594 C 1506.855469 459.085938 1512.914062 462.132812 1518.898438 465.332031 C 1524.882812 468.53125 1530.785156 471.875 1536.605469 475.363281 C 1542.425781 478.851562 1548.15625 482.480469 1553.796875 486.25 C 1559.441406 490.019531 1564.984375 493.925781 1570.4375 497.96875 C 1575.886719 502.011719 1581.234375 506.183594 1586.480469 510.488281 C 1591.726562 514.792969 1596.863281 519.226562 1601.890625 523.78125 C 1606.917969 528.339844 1611.828125 533.015625 1616.628906 537.816406 C 1621.425781 542.613281 1626.105469 547.527344 1630.660156 552.554688 C 1635.21875 557.582031 1639.648438 562.71875 1643.953125 567.964844 C 1648.257812 573.207031 1652.429688 578.554688 1656.472656 584.007812 C 1660.515625 589.457031 1664.421875 595.003906 1668.191406 600.644531 C 1671.960938 606.285156 1675.589844 612.019531 1679.078125 617.839844 C 1682.566406 623.660156 1685.910156 629.558594 1689.109375 635.542969 C 1692.308594 641.527344 1695.359375 647.589844 1698.257812 653.722656 C 1701.160156 659.855469 1703.910156 666.058594 1706.507812 672.328125 C 1709.101562 678.597656 1711.542969 684.925781 1713.832031 691.3125 C 1716.117188 697.703125 1718.246094 704.144531 1720.214844 710.636719 C 1722.183594 717.132812 1723.992188 723.667969 1725.640625 730.25 C 1727.289062 736.832031 1728.777344 743.453125 1730.101562 750.105469 C 1731.425781 756.761719 1732.585938 763.445312 1733.582031 770.160156 C 1734.574219 776.871094 1735.40625 783.601562 1736.070312 790.355469 C 1736.734375 797.109375 1737.234375 803.875 1737.566406 810.652344 C 1737.902344 817.429688 1738.066406 824.210938 1738.066406 830.996094 Z M 1738.066406 830.996094 " fill-opacity="1" fill-rule="nonzero"/></g></svg>