<svg xmlns="http://www.w3.org/2000/svg" xmlns:xlink="http://www.w3.org/1999/xlink" width="4992" zoomAndPan="magnify" viewBox="0 0 3744 3743.999967" height="4992" preserveAspectRatio="xMidYMid meet" version="1.0"><defs><clipPath id="8686d50657"><path d="M 860 622.070312 L 2884 622.070312 L 2884 2647 L 860 2647 Z M 860 622.070312 " clip-rule="nonzero"/></clipPath><clipPath id="5e09f7042e"><path d="M 725.589844 1567 L 3018.339844 1567 L 3018.339844 3388 L 725.589844 3388 Z M 725.589844 1567 " clip-rule="nonzero"/></clipPath><clipPath id="c56328f23f"><path d="M 908.683594 476.996094 L 1738.183594 476.996094 L 1738.183594 1306.496094 L 908.683594 1306.496094 Z M 908.683594 476.996094 " clip-rule="nonzero"/></clipPath><clipPath id="c84551ef79"><path d="M 787.015625 355.324219 L 1859.515625 355.324219 L 1859.515625 1427.824219 L 787.015625 1427.824219 Z M 787.015625 355.324219 " clip-rule="nonzero"/></clipPath></defs><g clip-path="url(#8686d50657)"><path fill="#fff9eb" d="M 2883.539062 1634.472656 C 2883.535156 1651.027344 2883.128906 1667.570312 2882.316406 1684.105469 C 2881.507812 1700.640625 2880.289062 1717.144531 2878.667969 1733.621094 C 2877.042969 1750.09375 2875.019531 1766.519531 2872.589844 1782.894531 C 2870.160156 1799.269531 2867.328125 1815.578125 2864.101562 1831.8125 C 2860.871094 1848.050781 2857.246094 1864.199219 2853.222656 1880.257812 C 2849.199219 1896.3125 2844.785156 1912.265625 2839.980469 1928.105469 C 2835.175781 1943.949219 2829.984375 1959.664062 2824.40625 1975.25 C 2818.828125 1990.835938 2812.871094 2006.277344 2806.539062 2021.570312 C 2800.203125 2036.867188 2793.496094 2051.996094 2786.417969 2066.960938 C 2779.339844 2081.925781 2771.898438 2096.707031 2764.09375 2111.308594 C 2756.292969 2125.90625 2748.132812 2140.308594 2739.625 2154.507812 C 2731.113281 2168.707031 2722.257812 2182.6875 2713.0625 2196.453125 C 2703.863281 2210.21875 2694.335938 2223.75 2684.472656 2237.046875 C 2674.613281 2250.339844 2664.429688 2263.386719 2653.929688 2276.183594 C 2643.425781 2288.984375 2632.617188 2301.515625 2621.5 2313.78125 C 2610.382812 2326.046875 2598.96875 2338.03125 2587.265625 2349.738281 C 2575.558594 2361.445312 2563.574219 2372.855469 2551.304688 2383.972656 C 2539.039062 2395.089844 2526.507812 2405.898438 2513.710938 2416.402344 C 2500.914062 2426.902344 2487.867188 2437.085938 2474.570312 2446.949219 C 2461.273438 2456.808594 2447.742188 2466.339844 2433.980469 2475.535156 C 2420.214844 2484.734375 2406.234375 2493.585938 2392.035156 2502.097656 C 2377.832031 2510.609375 2363.433594 2518.765625 2348.835938 2526.570312 C 2334.234375 2534.375 2319.453125 2541.8125 2304.488281 2548.890625 C 2289.523438 2555.96875 2274.390625 2562.675781 2259.097656 2569.011719 C 2243.804688 2575.347656 2228.363281 2581.304688 2212.777344 2586.878906 C 2197.1875 2592.457031 2181.472656 2597.648438 2165.632812 2602.453125 C 2149.792969 2607.261719 2133.839844 2611.671875 2117.78125 2615.695312 C 2101.722656 2619.71875 2085.578125 2623.34375 2069.339844 2626.574219 C 2053.105469 2629.804688 2036.796875 2632.632812 2020.421875 2635.0625 C 2004.046875 2637.492188 1987.621094 2639.515625 1971.148438 2641.140625 C 1954.671875 2642.761719 1938.167969 2643.980469 1921.632812 2644.792969 C 1905.097656 2645.605469 1888.554688 2646.011719 1872 2646.011719 C 1855.445312 2646.011719 1838.898438 2645.605469 1822.363281 2644.792969 C 1805.832031 2643.980469 1789.324219 2642.761719 1772.851562 2641.140625 C 1756.375 2639.515625 1739.949219 2637.492188 1723.574219 2635.0625 C 1707.199219 2632.632812 1690.894531 2629.804688 1674.65625 2626.574219 C 1658.421875 2623.34375 1642.273438 2619.71875 1626.214844 2615.695312 C 1610.15625 2611.671875 1594.207031 2607.261719 1578.363281 2602.453125 C 1562.523438 2597.648438 1546.808594 2592.457031 1531.222656 2586.878906 C 1515.636719 2581.304688 1500.195312 2575.347656 1484.898438 2569.011719 C 1469.605469 2562.675781 1454.476562 2555.96875 1439.511719 2548.890625 C 1424.546875 2541.8125 1409.761719 2534.375 1395.164062 2526.570312 C 1380.5625 2518.765625 1366.164062 2510.609375 1351.964844 2502.097656 C 1337.765625 2493.585938 1323.78125 2484.734375 1310.019531 2475.535156 C 1296.253906 2466.339844 1282.722656 2456.808594 1269.425781 2446.949219 C 1256.128906 2437.085938 1243.082031 2426.902344 1230.285156 2416.402344 C 1217.488281 2405.898438 1204.957031 2395.089844 1192.691406 2383.972656 C 1180.425781 2372.855469 1168.4375 2361.445312 1156.734375 2349.738281 C 1145.027344 2338.03125 1133.617188 2326.046875 1122.5 2313.78125 C 1111.382812 2301.515625 1100.570312 2288.980469 1090.070312 2276.183594 C 1079.566406 2263.386719 1069.386719 2250.339844 1059.523438 2237.046875 C 1049.660156 2223.75 1040.132812 2210.21875 1030.933594 2196.453125 C 1021.738281 2182.6875 1012.882812 2168.707031 1004.375 2154.507812 C 995.863281 2140.308594 987.707031 2125.90625 979.902344 2111.308594 C 972.097656 2096.707031 964.65625 2081.925781 957.578125 2066.960938 C 950.5 2051.996094 943.792969 2036.867188 937.460938 2021.570312 C 931.125 2006.277344 925.167969 1990.835938 919.589844 1975.25 C 914.015625 1959.664062 908.824219 1943.949219 904.015625 1928.105469 C 899.210938 1912.265625 894.796875 1896.3125 890.773438 1880.257812 C 886.753906 1864.199219 883.125 1848.050781 879.898438 1831.8125 C 876.667969 1815.578125 873.835938 1799.269531 871.410156 1782.894531 C 868.980469 1766.519531 866.953125 1750.09375 865.332031 1733.621094 C 863.707031 1717.144531 862.492188 1700.640625 861.679688 1684.105469 C 860.867188 1667.570312 860.460938 1651.027344 860.460938 1634.472656 C 860.460938 1617.917969 860.867188 1601.375 861.679688 1584.839844 C 862.492188 1568.304688 863.707031 1551.800781 865.332031 1535.324219 C 866.953125 1518.847656 868.980469 1502.425781 871.410156 1486.046875 C 873.835938 1469.671875 876.667969 1453.367188 879.898438 1437.132812 C 883.125 1420.894531 886.753906 1404.746094 890.773438 1388.6875 C 894.796875 1372.628906 899.210938 1356.679688 904.015625 1340.839844 C 908.824219 1324.996094 914.015625 1309.28125 919.589844 1293.695312 C 925.167969 1278.109375 931.125 1262.667969 937.460938 1247.375 C 943.792969 1232.078125 950.5 1216.949219 957.578125 1201.984375 C 964.65625 1187.019531 972.097656 1172.234375 979.902344 1157.636719 C 987.707031 1143.035156 995.863281 1128.636719 1004.375 1114.4375 C 1012.882812 1100.238281 1021.738281 1086.257812 1030.933594 1072.492188 C 1040.132812 1058.726562 1049.660156 1045.195312 1059.523438 1031.898438 C 1069.386719 1018.601562 1079.566406 1005.554688 1090.070312 992.757812 C 1100.570312 979.960938 1111.382812 967.429688 1122.5 955.164062 C 1133.617188 942.898438 1145.027344 930.914062 1156.734375 919.207031 C 1168.4375 907.5 1180.425781 896.089844 1192.691406 884.972656 C 1204.957031 873.855469 1217.488281 863.042969 1230.285156 852.542969 C 1243.082031 842.039062 1256.128906 831.859375 1269.425781 821.996094 C 1282.722656 812.136719 1296.253906 802.605469 1310.019531 793.410156 C 1323.78125 784.210938 1337.765625 775.359375 1351.964844 766.847656 C 1366.164062 758.335938 1380.5625 750.179688 1395.164062 742.375 C 1409.761719 734.570312 1424.546875 727.128906 1439.511719 720.050781 C 1454.476562 712.972656 1469.605469 706.269531 1484.898438 699.933594 C 1500.195312 693.597656 1515.636719 687.640625 1531.222656 682.066406 C 1546.808594 676.488281 1562.523438 671.296875 1578.363281 666.492188 C 1594.207031 661.683594 1610.15625 657.269531 1626.214844 653.25 C 1642.273438 649.226562 1658.421875 645.601562 1674.65625 642.371094 C 1690.894531 639.140625 1707.199219 636.3125 1723.574219 633.882812 C 1739.949219 631.453125 1756.375 629.425781 1772.851562 627.804688 C 1789.324219 626.183594 1805.832031 624.964844 1822.363281 624.152344 C 1838.898438 623.339844 1855.445312 622.933594 1872 622.933594 C 1888.554688 622.933594 1905.097656 623.339844 1921.632812 624.152344 C 1938.167969 624.964844 1954.671875 626.183594 1971.148438 627.804688 C 1987.621094 629.425781 2004.046875 631.453125 2020.421875 633.882812 C 2036.796875 636.3125 2053.105469 639.140625 2069.339844 642.371094 C 2085.578125 645.601562 2101.722656 649.226562 2117.78125 653.25 C 2133.839844 657.269531 2149.792969 661.683594 2165.632812 666.492188 C 2181.472656 671.296875 2197.1875 676.488281 2212.777344 682.066406 C 2228.363281 687.640625 2243.804688 693.597656 2259.097656 699.933594 C 2274.390625 706.269531 2289.523438 712.972656 2304.488281 720.050781 C 2319.453125 727.128906 2334.234375 734.570312 2348.835938 742.375 C 2363.433594 750.179688 2377.832031 758.335938 2392.035156 766.847656 C 2406.234375 775.359375 2420.214844 784.210938 2433.980469 793.410156 C 2447.742188 802.605469 2461.273438 812.136719 2474.570312 821.996094 C 2487.867188 831.859375 2500.914062 842.039062 2513.710938 852.542969 C 2526.507812 863.042969 2539.039062 873.855469 2551.304688 884.972656 C 2563.574219 896.089844 2575.558594 907.5 2587.265625 919.207031 C 2598.96875 930.914062 2610.382812 942.898438 2621.5 955.164062 C 2632.617188 967.429688 2643.425781 979.960938 2653.929688 992.757812 C 2664.429688 1005.554688 2674.613281 1018.601562 2684.472656 1031.898438 C 2694.335938 1045.195312 2703.863281 1058.726562 2713.0625 1072.492188 C 2722.257812 1086.257812 2731.113281 1100.238281 2739.625 1114.4375 C 2748.132812 1128.636719 2756.292969 1143.035156 2764.09375 1157.636719 C 2771.898438 1172.234375 2779.339844 1187.019531 2786.417969 1201.984375 C 2793.496094 1216.949219 2800.203125 1232.078125 2806.539062 1247.375 C 2812.871094 1262.667969 2818.828125 1278.109375 2824.40625 1293.695312 C 2829.984375 1309.28125 2835.175781 1324.996094 2839.980469 1340.839844 C 2844.785156 1356.679688 2849.199219 1372.628906 2853.222656 1388.6875 C 2857.246094 1404.746094 2860.871094 1420.894531 2864.101562 1437.132812 C 2867.328125 1453.367188 2870.160156 1469.671875 2872.589844 1486.046875 C 2875.015625 1502.425781 2877.042969 1518.847656 2878.667969 1535.324219 C 2880.289062 1551.800781 2881.507812 1568.304688 2882.316406 1584.839844 C 2883.128906 1601.375 2883.535156 1617.917969 2883.539062 1634.472656 " fill-opacity="1" fill-rule="nonzero"/></g><g clip-path="url(#5e09f7042e)"><path fill="#fff9eb" d="M 1518.835938 1567.035156 L 2225.226562 1567.035156 C 2228.613281 1567.035156 2231.992188 1567.164062 2235.367188 1567.417969 C 2238.738281 1567.671875 2242.101562 1568.050781 2245.445312 1568.558594 C 2248.792969 1569.0625 2252.113281 1569.695312 2255.414062 1570.453125 C 2258.710938 1571.210938 2261.976562 1572.089844 2265.207031 1573.089844 C 2268.441406 1574.09375 2271.628906 1575.214844 2274.777344 1576.460938 C 2277.925781 1577.703125 2281.019531 1579.0625 2284.066406 1580.535156 C 2287.113281 1582.011719 2290.097656 1583.601562 2293.023438 1585.300781 C 2295.949219 1587 2298.804688 1588.808594 2301.597656 1590.726562 C 2304.386719 1592.640625 2307.097656 1594.65625 2309.738281 1596.777344 C 2312.375 1598.898438 2314.929688 1601.113281 2317.398438 1603.425781 C 2319.871094 1605.738281 2322.25 1608.140625 2324.542969 1610.628906 C 2326.832031 1613.121094 2329.023438 1615.695312 2331.121094 1618.351562 C 2333.21875 1621.007812 2335.210938 1623.738281 2337.101562 1626.546875 C 2338.992188 1629.351562 2340.777344 1632.226562 2342.449219 1635.167969 C 2344.125 1638.105469 2345.6875 1641.105469 2347.136719 1644.164062 C 2348.585938 1647.222656 2349.917969 1650.332031 2351.132812 1653.488281 L 3018.410156 3387.804688 L 725.589844 3387.804688 L 1393.203125 1653.488281 C 1394.417969 1650.335938 1395.746094 1647.234375 1397.191406 1644.179688 C 1398.636719 1641.125 1400.195312 1638.132812 1401.867188 1635.195312 C 1403.539062 1632.257812 1405.316406 1629.390625 1407.203125 1626.589844 C 1409.089844 1623.785156 1411.082031 1621.058594 1413.171875 1618.40625 C 1415.261719 1615.753906 1417.453125 1613.179688 1419.738281 1610.691406 C 1422.019531 1608.203125 1424.394531 1605.804688 1426.863281 1603.496094 C 1429.328125 1601.183594 1431.875 1598.96875 1434.507812 1596.851562 C 1437.136719 1594.734375 1439.84375 1592.714844 1442.628906 1590.800781 C 1445.410156 1588.886719 1448.261719 1587.078125 1451.179688 1585.375 C 1454.101562 1583.675781 1457.078125 1582.085938 1460.117188 1580.609375 C 1463.15625 1579.132812 1466.246094 1577.773438 1469.386719 1576.527344 C 1472.527344 1575.28125 1475.707031 1574.15625 1478.933594 1573.152344 C 1482.160156 1572.144531 1485.417969 1571.261719 1488.710938 1570.5 C 1492 1569.742188 1495.316406 1569.105469 1498.65625 1568.59375 C 1501.996094 1568.082031 1505.347656 1567.695312 1508.71875 1567.433594 C 1512.085938 1567.175781 1515.457031 1567.042969 1518.835938 1567.035156 " fill-opacity="1" fill-rule="nonzero"/></g><path fill="#231f20" d="M 2544.335938 2155.75 C 2484.316406 2228.582031 2429.695312 2308.832031 2310.332031 2308.832031 C 2090.558594 2308.832031 2090.558594 2039.085938 1871.390625 2039.085938 C 1652.226562 2039.085938 1652.226562 2308.832031 1433.058594 2308.832031 C 1313.628906 2308.832031 1259.679688 2228.582031 1199.730469 2155.75 L 1393.273438 1653.355469 C 1394.46875 1650.199219 1395.78125 1647.089844 1397.210938 1644.035156 C 1398.640625 1640.976562 1400.1875 1637.980469 1401.84375 1635.039062 C 1403.5 1632.097656 1405.269531 1629.226562 1407.144531 1626.421875 C 1409.019531 1623.613281 1411 1620.882812 1413.082031 1618.226562 C 1415.164062 1615.570312 1417.34375 1612.996094 1419.621094 1610.507812 C 1421.898438 1608.015625 1424.265625 1605.613281 1426.726562 1603.304688 C 1429.183594 1600.992188 1431.726562 1598.777344 1434.355469 1596.65625 C 1436.984375 1594.539062 1439.6875 1592.523438 1442.464844 1590.609375 C 1445.246094 1588.695312 1448.09375 1586.886719 1451.011719 1585.1875 C 1453.929688 1583.492188 1456.90625 1581.90625 1459.941406 1580.433594 C 1462.976562 1578.960938 1466.066406 1577.605469 1469.207031 1576.363281 C 1472.34375 1575.125 1475.527344 1574.007812 1478.75 1573.011719 C 1481.976562 1572.011719 1485.234375 1571.136719 1488.523438 1570.386719 C 1491.816406 1569.636719 1495.128906 1569.011719 1498.46875 1568.511719 C 1501.804688 1568.011719 1505.15625 1567.636719 1508.523438 1567.390625 C 1511.890625 1567.144531 1515.257812 1567.027344 1518.636719 1567.035156 L 2225.429688 1567.035156 C 2228.804688 1567.027344 2232.175781 1567.144531 2235.542969 1567.390625 C 2238.910156 1567.636719 2242.261719 1568.011719 2245.597656 1568.511719 C 2248.9375 1569.011719 2252.25 1569.636719 2255.539062 1570.386719 C 2258.832031 1571.136719 2262.089844 1572.011719 2265.3125 1573.011719 C 2268.539062 1574.007812 2271.71875 1575.125 2274.859375 1576.363281 C 2278 1577.605469 2281.085938 1578.960938 2284.125 1580.433594 C 2287.160156 1581.90625 2290.136719 1583.492188 2293.054688 1585.1875 C 2295.96875 1586.886719 2298.820312 1588.695312 2301.597656 1590.609375 C 2304.378906 1592.523438 2307.082031 1594.539062 2309.710938 1596.65625 C 2312.335938 1598.777344 2314.878906 1600.992188 2317.339844 1603.304688 C 2319.796875 1605.613281 2322.167969 1608.015625 2324.445312 1610.507812 C 2326.722656 1612.996094 2328.902344 1615.570312 2330.984375 1618.226562 C 2333.066406 1620.882812 2335.046875 1623.613281 2336.921875 1626.421875 C 2338.796875 1629.226562 2340.5625 1632.097656 2342.222656 1635.039062 C 2343.878906 1637.980469 2345.421875 1640.976562 2346.855469 1644.035156 C 2348.285156 1647.089844 2349.597656 1650.199219 2350.792969 1653.355469 Z M 2544.335938 2155.75 " fill-opacity="1" fill-rule="nonzero"/><g clip-path="url(#c56328f23f)"><path fill="#231f20" d="M 1738.042969 891.675781 C 1738.042969 898.460938 1737.875 905.242188 1737.542969 912.023438 C 1737.210938 918.800781 1736.710938 925.566406 1736.046875 932.320312 C 1735.382812 939.074219 1734.550781 945.808594 1733.554688 952.519531 C 1732.558594 959.234375 1731.398438 965.917969 1730.074219 972.574219 C 1728.75 979.230469 1727.265625 985.851562 1725.617188 992.433594 C 1723.964844 999.015625 1722.15625 1005.554688 1720.1875 1012.050781 C 1718.21875 1018.542969 1716.089844 1024.984375 1713.800781 1031.375 C 1711.515625 1037.765625 1709.074219 1044.09375 1706.476562 1050.367188 C 1703.878906 1056.636719 1701.128906 1062.839844 1698.230469 1068.972656 C 1695.328125 1075.109375 1692.277344 1081.167969 1689.078125 1087.152344 C 1685.878906 1093.136719 1682.535156 1099.042969 1679.046875 1104.863281 C 1675.558594 1110.683594 1671.925781 1116.414062 1668.15625 1122.058594 C 1664.386719 1127.699219 1660.480469 1133.246094 1656.4375 1138.699219 C 1652.394531 1144.148438 1648.21875 1149.5 1643.914062 1154.746094 C 1639.609375 1159.992188 1635.179688 1165.128906 1630.621094 1170.15625 C 1626.0625 1175.183594 1621.386719 1180.097656 1616.585938 1184.898438 C 1611.789062 1189.695312 1606.875 1194.375 1601.84375 1198.933594 C 1596.816406 1203.488281 1591.679688 1207.921875 1586.433594 1212.226562 C 1581.1875 1216.53125 1575.839844 1220.707031 1570.386719 1224.75 C 1564.9375 1228.792969 1559.390625 1232.699219 1553.746094 1236.46875 C 1548.105469 1240.238281 1542.371094 1243.867188 1536.550781 1247.355469 C 1530.730469 1250.847656 1524.828125 1254.191406 1518.84375 1257.390625 C 1512.855469 1260.589844 1506.796875 1263.640625 1500.660156 1266.539062 C 1494.527344 1269.441406 1488.324219 1272.191406 1482.054688 1274.789062 C 1475.785156 1277.386719 1469.453125 1279.828125 1463.066406 1282.113281 C 1456.675781 1284.398438 1450.234375 1286.527344 1443.738281 1288.5 C 1437.246094 1290.46875 1430.707031 1292.277344 1424.121094 1293.925781 C 1417.539062 1295.574219 1410.917969 1297.0625 1404.261719 1298.386719 C 1397.605469 1299.710938 1390.921875 1300.871094 1384.210938 1301.867188 C 1377.496094 1302.863281 1370.761719 1303.691406 1364.007812 1304.359375 C 1357.253906 1305.023438 1350.488281 1305.523438 1343.710938 1305.855469 C 1336.933594 1306.1875 1330.148438 1306.355469 1323.363281 1306.355469 C 1316.578125 1306.355469 1309.792969 1306.1875 1303.015625 1305.855469 C 1296.238281 1305.523438 1289.472656 1305.023438 1282.71875 1304.359375 C 1275.964844 1303.691406 1269.230469 1302.863281 1262.515625 1301.867188 C 1255.804688 1300.871094 1249.121094 1299.710938 1242.464844 1298.386719 C 1235.808594 1297.0625 1229.1875 1295.574219 1222.605469 1293.925781 C 1216.019531 1292.277344 1209.484375 1290.46875 1202.988281 1288.5 C 1196.492188 1286.527344 1190.050781 1284.398438 1183.660156 1282.113281 C 1177.273438 1279.828125 1170.941406 1277.386719 1164.671875 1274.789062 C 1158.402344 1272.191406 1152.199219 1269.441406 1146.066406 1266.539062 C 1139.929688 1263.640625 1133.871094 1260.589844 1127.882812 1257.390625 C 1121.898438 1254.191406 1115.996094 1250.847656 1110.175781 1247.355469 C 1104.355469 1243.867188 1098.621094 1240.238281 1092.980469 1236.46875 C 1087.335938 1232.699219 1081.789062 1228.792969 1076.339844 1224.75 C 1070.886719 1220.707031 1065.539062 1216.53125 1060.292969 1212.226562 C 1055.046875 1207.921875 1049.910156 1203.488281 1044.882812 1198.933594 C 1039.851562 1194.375 1034.9375 1189.695312 1030.140625 1184.898438 C 1025.34375 1180.097656 1020.664062 1175.183594 1016.105469 1170.15625 C 1011.546875 1165.128906 1007.117188 1159.992188 1002.8125 1154.746094 C 998.507812 1149.5 994.332031 1144.148438 990.289062 1138.699219 C 986.246094 1133.246094 982.339844 1127.699219 978.570312 1122.058594 C 974.800781 1116.414062 971.167969 1110.683594 967.679688 1104.863281 C 964.191406 1099.042969 960.847656 1093.136719 957.648438 1087.152344 C 954.449219 1081.167969 951.398438 1075.109375 948.496094 1068.972656 C 945.597656 1062.839844 942.847656 1056.636719 940.25 1050.367188 C 937.652344 1044.09375 935.210938 1037.765625 932.925781 1031.375 C 930.636719 1024.984375 928.511719 1018.542969 926.539062 1012.050781 C 924.570312 1005.554688 922.761719 999.015625 921.109375 992.433594 C 919.460938 985.851562 917.976562 979.230469 916.652344 972.574219 C 915.328125 965.917969 914.167969 959.234375 913.171875 952.519531 C 912.175781 945.808594 911.347656 939.074219 910.679688 932.320312 C 910.015625 925.566406 909.515625 918.800781 909.183594 912.023438 C 908.851562 905.242188 908.683594 898.460938 908.683594 891.675781 C 908.683594 884.886719 908.851562 878.105469 909.183594 871.328125 C 909.515625 864.550781 910.015625 857.78125 910.679688 851.027344 C 911.347656 844.273438 912.175781 837.542969 913.171875 830.828125 C 914.167969 824.117188 915.328125 817.429688 916.652344 810.773438 C 917.976562 804.117188 919.460938 797.5 921.109375 790.914062 C 922.761719 784.332031 924.570312 777.792969 926.539062 771.300781 C 928.511719 764.804688 930.636719 758.363281 932.925781 751.972656 C 935.210938 745.582031 937.652344 739.253906 940.25 732.984375 C 942.847656 726.714844 945.597656 720.511719 948.496094 714.375 C 951.398438 708.242188 954.449219 702.179688 957.648438 696.195312 C 960.847656 690.210938 964.191406 684.308594 967.679688 678.488281 C 971.167969 672.664062 974.800781 666.933594 978.570312 661.289062 C 982.339844 655.648438 986.246094 650.101562 990.289062 644.648438 C 994.332031 639.199219 998.507812 633.851562 1002.8125 628.605469 C 1007.117188 623.359375 1011.546875 618.222656 1016.105469 613.191406 C 1020.664062 608.164062 1025.34375 603.25 1030.140625 598.453125 C 1034.9375 593.652344 1039.851562 588.976562 1044.882812 584.417969 C 1049.910156 579.859375 1055.046875 575.429688 1060.292969 571.121094 C 1065.539062 566.816406 1070.886719 562.644531 1076.339844 558.601562 C 1081.789062 554.558594 1087.335938 550.652344 1092.980469 546.882812 C 1098.621094 543.109375 1104.355469 539.480469 1110.175781 535.992188 C 1115.996094 532.503906 1121.898438 529.160156 1127.886719 525.960938 C 1133.871094 522.761719 1139.929688 519.710938 1146.066406 516.808594 C 1152.199219 513.90625 1158.402344 511.15625 1164.671875 508.5625 C 1170.941406 505.964844 1177.273438 503.523438 1183.660156 501.234375 C 1190.050781 498.949219 1196.492188 496.820312 1202.988281 494.851562 C 1209.484375 492.882812 1216.019531 491.070312 1222.605469 489.421875 C 1229.1875 487.773438 1235.808594 486.285156 1242.464844 484.964844 C 1249.121094 483.640625 1255.804688 482.480469 1262.515625 481.484375 C 1269.230469 480.488281 1275.964844 479.65625 1282.71875 478.992188 C 1289.472656 478.328125 1296.238281 477.828125 1303.015625 477.496094 C 1309.792969 477.160156 1316.578125 476.996094 1323.363281 476.996094 C 1330.148438 476.996094 1336.933594 477.160156 1343.710938 477.496094 C 1350.488281 477.828125 1357.253906 478.328125 1364.007812 478.992188 C 1370.761719 479.65625 1377.496094 480.488281 1384.210938 481.484375 C 1390.921875 482.480469 1397.605469 483.640625 1404.261719 484.964844 C 1410.917969 486.285156 1417.539062 487.773438 1424.121094 489.421875 C 1430.707031 491.070312 1437.246094 492.882812 1443.738281 494.851562 C 1450.234375 496.820312 1456.675781 498.949219 1463.066406 501.234375 C 1469.453125 503.523438 1475.785156 505.964844 1482.054688 508.5625 C 1488.324219 511.15625 1494.527344 513.90625 1500.660156 516.808594 C 1506.796875 519.710938 1512.855469 522.761719 1518.84375 525.960938 C 1524.828125 529.160156 1530.730469 532.503906 1536.550781 535.992188 C 1542.371094 539.480469 1548.105469 543.109375 1553.746094 546.882812 C 1559.390625 550.652344 1564.9375 554.558594 1570.386719 558.601562 C 1575.839844 562.644531 1581.1875 566.816406 1586.433594 571.121094 C 1591.679688 575.429688 1596.816406 579.859375 1601.84375 584.417969 C 1606.875 588.976562 1611.789062 593.652344 1616.585938 598.453125 C 1621.386719 603.25 1626.0625 608.164062 1630.621094 613.191406 C 1635.179688 618.222656 1639.609375 623.359375 1643.914062 628.605469 C 1648.21875 633.851562 1652.394531 639.199219 1656.4375 644.648438 C 1660.480469 650.101562 1664.386719 655.648438 1668.15625 661.289062 C 1671.925781 666.933594 1675.558594 672.664062 1679.046875 678.488281 C 1682.535156 684.308594 1685.878906 690.210938 1689.078125 696.195312 C 1692.277344 702.179688 1695.328125 708.242188 1698.230469 714.375 C 1701.128906 720.511719 1703.878906 726.714844 1706.476562 732.984375 C 1709.074219 739.253906 1711.515625 745.582031 1713.800781 751.972656 C 1716.089844 758.363281 1718.21875 764.804688 1720.1875 771.300781 C 1722.15625 777.792969 1723.964844 784.332031 1725.617188 790.914062 C 1727.265625 797.5 1728.75 804.117188 1730.074219 810.773438 C 1731.398438 817.429688 1732.558594 824.117188 1733.554688 830.828125 C 1734.550781 837.542969 1735.382812 844.273438 1736.046875 851.027344 C 1736.710938 857.78125 1737.210938 864.550781 1737.542969 871.328125 C 1737.875 878.105469 1738.042969 884.886719 1738.042969 891.675781 Z M 1738.042969 891.675781 " fill-opacity="1" fill-rule="nonzero"/></g><g clip-path="url(#c84551ef79)"><path fill="#fff9eb" d="M 1323.363281 1428.023438 C 1027.046875 1428.023438 787.015625 1186.335938 787.015625 891.675781 C 787.015625 597.015625 1027.046875 355.324219 1323.363281 355.324219 C 1619.679688 355.324219 1859.714844 595.359375 1859.714844 891.675781 C 1859.714844 1187.992188 1618.027344 1428.023438 1323.363281 1428.023438 Z M 1323.363281 388.433594 C 1045.257812 388.433594 820.121094 613.566406 820.121094 891.675781 C 820.121094 1169.78125 1045.257812 1394.917969 1323.363281 1394.917969 C 1601.472656 1394.917969 1826.605469 1169.78125 1826.605469 891.675781 C 1826.605469 613.566406 1599.816406 388.433594 1323.363281 388.433594 Z M 1323.363281 388.433594 " fill-opacity="1" fill-rule="nonzero"/></g></svg>