<svg xmlns="http://www.w3.org/2000/svg" xmlns:xlink="http://www.w3.org/1999/xlink" width="4992" zoomAndPan="magnify" viewBox="0 0 3744 3743.999967" height="4992" preserveAspectRatio="xMidYMid meet" version="1.0"><defs><clipPath id="89b9f034c6"><path d="M 672 669.757812 L 3072 669.757812 L 3072 3074.257812 L 672 3074.257812 Z M 672 669.757812 " clip-rule="nonzero"/></clipPath></defs><g clip-path="url(#89b9f034c6)"><path fill="#fff9eb" d="M 2873.359375 669.757812 L 871.832031 669.757812 C 761.171875 669.757812 672.164062 759.96875 672.164062 869.429688 L 672.164062 2874.5625 C 672.164062 2985.222656 762.375 3074.234375 871.832031 3074.234375 L 2872.15625 3074.234375 C 2982.816406 3074.234375 3071.828125 2984.019531 3071.828125 2874.5625 L 3071.828125 869.429688 C 3073.03125 759.96875 2984.019531 669.757812 2873.359375 669.757812 Z M 1383.039062 2653.238281 L 1028.203125 2653.238281 L 1028.203125 1587.523438 L 1383.039062 1587.523438 Z M 1205.019531 1458.820312 C 1093.15625 1458.820312 1002.941406 1368.605469 1002.941406 1256.742188 C 1002.941406 1144.878906 1093.15625 1054.664062 1205.019531 1054.664062 C 1316.882812 1054.664062 1407.097656 1144.878906 1407.097656 1256.742188 C 1407.097656 1368.605469 1316.882812 1458.820312 1205.019531 1458.820312 Z M 2718.191406 2653.238281 L 2362.152344 2653.238281 L 2353.730469 2020.546875 C 2353.730469 2020.546875 2362.152344 1852.148438 2178.117188 1853.351562 C 1994.082031 1854.554688 1968.824219 2020.546875 1968.824219 2020.546875 L 1968.824219 2653.238281 L 1610.378906 2653.238281 L 1610.378906 1587.523438 L 1954.390625 1587.523438 L 1954.390625 1734.269531 C 1954.390625 1734.269531 1968.824219 1686.15625 2048.210938 1629.621094 C 2127.597656 1573.089844 2258.707031 1561.0625 2315.242188 1563.464844 C 2371.773438 1565.871094 2448.757812 1556.25 2577.460938 1645.261719 C 2715.785156 1740.285156 2719.394531 1989.273438 2719.394531 1989.273438 Z M 2718.191406 2653.238281 " fill-opacity="1" fill-rule="nonzero"/></g></svg>